<svg id="Calque_1" data-name="Calque 1" xmlns="http://www.w3.org/2000/svg" viewBox="0 0 244.06 162.52"><defs><style>.cls-1{fill:#e30713;}.cls-2{fill:#1d1d1b;}</style></defs><title>EPFL-logo-55mm-CMJN</title><path class="cls-1" d="M94.56,88.21s-13-18,0-44.07H44.39V88.21Z"/><path class="cls-1" d="M155.1,88.23c-6.63-10.54-6.19-20-6.19-20l0-24.09h51l0,44.09Z"/><path class="cls-2" d="M105.06,44.14s-5.76,10.06-6,19.52h5.32v4.56H98.87s-.44,9.46,6.19,20H99.68s-13-18,0-44.08Z"/><path class="cls-2" d="M125.23,88.23h5.07v-20h5.42V63.67h-5.33c.22-9.46,6-19.52,6-19.52H131a51.53,51.53,0,0,0-5.79,22.06Z"/><path class="cls-2" d="M143.74,68.23s-.44,9.46,6.19,20h-5.38s-6.09-8.39-5.79-22V44.14h5Z"/><rect class="cls-2" x="108.39" y="44.14" width="5" height="44.09"/><path class="cls-2" d="M120.13,44.14H114.8s8.37,11,0,22.07h5.33S128,55.79,120.13,44.14Z"/><path class="cls-2" d="M48.5,94.19c.06.11,0,.14,0,.14a1.78,1.78,0,0,0-.35,0,7.59,7.59,0,0,0-1.78.49.69.69,0,0,1-.18.06.07.07,0,0,1-.06-.07s0-.06.08-.09c.43-.29,1.52-1,1.6-1s.27-.15.33-.15.06,0,.11.1A4.64,4.64,0,0,1,48.5,94.19Zm-3.4,5c0-1.83,0-2.16,0-2.54s-.12-.58-.5-.66a1.81,1.81,0,0,0-.4,0c-.05,0-.1,0-.1-.07s.06-.1.19-.1c.53,0,1.27,0,1.33,0h2.69a3.21,3.21,0,0,0,.5-.06c.06,0,.11-.06.16-.06s.05,0,.05.11-.06.22-.09.55c0,.12,0,.63-.06.77s0,.13-.08.13-.1-.06-.1-.15a1.22,1.22,0,0,0-.07-.42c-.08-.19-.2-.33-.83-.4-.2,0-1.48,0-1.61,0s-.07,0-.07.12V99.6c0,.08,0,.12.07.12s1.6,0,1.87,0a.82.82,0,0,0,.55-.16c.08-.09.13-.15.18-.15s0,0,0,.09,0,.27-.09.66-.05.66-.05.75,0,.22-.08.22-.08,0-.08-.1a1.13,1.13,0,0,0,0-.39c0-.16-.15-.36-.61-.41s-1.48-.06-1.68-.06a.07.07,0,0,0-.08.08v1c0,.39,0,1.75,0,2,0,.81.21,1,1.36,1a3.36,3.36,0,0,0,1.13-.13c.3-.13.44-.37.53-.85,0-.13,0-.18.1-.18s.07.1.07.18a11.29,11.29,0,0,1-.15,1.14c-.08.3-.18.3-.63.3-1.78,0-2.56-.07-2.9-.07-.06,0-.8,0-1.15,0-.13,0-.19,0-.19-.1s0-.07.09-.07a1.49,1.49,0,0,0,.36,0c.23,0,.29-.3.34-.64s.06-1.42.06-2.54Z"/><path class="cls-2" d="M52.34,103.55a4.47,4.47,0,0,1-1.42-3.47,4.43,4.43,0,0,1,4.89-4.46,10.6,10.6,0,0,1,1.7.14,10,10,0,0,0,1.2.18c.13,0,.15.06.15.13s0,.23-.06.65,0,1,0,1.21,0,.25-.11.25-.09-.08-.09-.25a1.58,1.58,0,0,0-.5-1.19,3.9,3.9,0,0,0-2.34-.67,3.63,3.63,0,0,0-2.7.85A3.93,3.93,0,0,0,52,100a4.24,4.24,0,0,0,4.24,4.29,2.66,2.66,0,0,0,2-.59,2.08,2.08,0,0,0,.43-1c0-.13,0-.18.12-.18s.08.08.08.18a11.83,11.83,0,0,1-.26,1.5c-.06.22-.09.25-.3.34a6.72,6.72,0,0,1-2.11.27A5.37,5.37,0,0,1,52.34,103.55Z"/><path class="cls-2" d="M61.48,99.88c0-2.57,1.46-3.86,3.42-3.86s3.57,1.52,3.57,4.33c0,3.42-2.18,4-3.24,4C63.12,104.38,61.48,102.61,61.48,99.88Zm-1.12.33a4.4,4.4,0,0,0,4.56,4.61A4.61,4.61,0,0,0,69.6,100,4.28,4.28,0,0,0,65,95.62,4.55,4.55,0,0,0,60.36,100.21Z"/><path class="cls-2" d="M73.42,101.28c0,1.72,0,2.47.26,2.69s.49.27,1.41.27c.62,0,1.14,0,1.42-.36a1.61,1.61,0,0,0,.3-.7c0-.09,0-.15.11-.15s.07,0,.07.18a7,7,0,0,1-.18,1.17c-.08.27-.11.31-.73.31-1.69,0-2.47-.07-3.15-.07-.11,0-.8,0-1.15,0-.13,0-.19,0-.19-.1s0-.07.1-.07a1.48,1.48,0,0,0,.35,0c.23,0,.29-.3.34-.64s.06-1.42.06-2.54V99.19c0-1.83,0-2.16,0-2.54s-.11-.58-.5-.66a1.7,1.7,0,0,0-.4,0c-.05,0-.09,0-.09-.07s.06-.1.18-.1c.53,0,1.27,0,1.33,0s.92,0,1.27,0c.13,0,.19,0,.19.1s0,.07-.1.07a2.13,2.13,0,0,0-.39,0c-.34.05-.43.25-.45.66s0,.71,0,2.54Z"/><path class="cls-2" d="M79.38,99.19c0-1.83,0-2.16,0-2.54s-.12-.58-.5-.66a1.81,1.81,0,0,0-.4,0s-.1,0-.1-.07.06-.1.19-.1c.53,0,1.27,0,1.33,0h2.68a3.21,3.21,0,0,0,.51-.06c.06,0,.1-.06.16-.06s0,0,0,.11-.06.22-.09.55c0,.12,0,.63-.06.77s0,.13-.08.13-.1-.06-.1-.15a1.22,1.22,0,0,0-.07-.42c-.08-.19-.2-.33-.83-.4-.2,0-1.48,0-1.61,0s-.07,0-.07.12V99.6c0,.08,0,.12.07.12s1.6,0,1.87,0a.82.82,0,0,0,.55-.16c.08-.09.13-.15.17-.15s.06,0,.06.09-.06.27-.09.66,0,.66,0,.75,0,.22-.08.22-.08,0-.08-.1a1.13,1.13,0,0,0-.05-.39c0-.16-.15-.36-.61-.41s-1.48-.06-1.68-.06a.07.07,0,0,0-.08.08v1c0,.39,0,1.75,0,2,0,.81.21,1,1.36,1a3.36,3.36,0,0,0,1.13-.13c.3-.13.44-.37.53-.85,0-.13,0-.18.1-.18s.07.1.07.18a11.29,11.29,0,0,1-.15,1.14c-.08.3-.18.3-.63.3-1.78,0-2.56-.07-2.9-.07-.06,0-.8,0-1.15,0-.13,0-.19,0-.19-.1s0-.07.09-.07a1.49,1.49,0,0,0,.36,0c.23,0,.29-.3.34-.64s0-1.42,0-2.54Z"/><path class="cls-2" d="M90.36,99.19c0-1.83,0-2.16,0-2.54s-.11-.58-.5-.66a1.7,1.7,0,0,0-.4,0c-.05,0-.09,0-.09-.07s0-.1.18-.1c.53,0,1.24,0,1.33,0,.26,0,.94,0,1.48,0a2.87,2.87,0,0,1,2.18.67,2.05,2.05,0,0,1,.59,1.4,2.72,2.72,0,0,1-2.89,2.79H92s-.13,0-.13-.08.08-.1.32-.1a2,2,0,0,0,2-1.92,2.5,2.5,0,0,0-.65-1.81,2.05,2.05,0,0,0-1.61-.58,1.42,1.42,0,0,0-.51.07c-.07,0-.09.1-.09.22v4.83c0,1.12,0,2,.06,2.54s.1.6.45.64a4,4,0,0,0,.53,0c.07,0,.1,0,.1.07s-.06.1-.19.1c-.65,0-1.39,0-1.44,0s-.78,0-1.13,0c-.13,0-.19,0-.19-.1a.08.08,0,0,1,.09-.07,1.49,1.49,0,0,0,.36,0c.23,0,.29-.3.34-.64s.06-1.42.06-2.54Z"/><path class="cls-2" d="M97.67,99.88c0-2.57,1.46-3.86,3.42-3.86s3.57,1.52,3.57,4.33c0,3.42-2.18,4-3.24,4C99.31,104.38,97.67,102.61,97.67,99.88Zm-1.12.33a4.4,4.4,0,0,0,4.55,4.61,4.61,4.61,0,0,0,4.69-4.8,4.28,4.28,0,0,0-4.61-4.4A4.55,4.55,0,0,0,96.55,100.21Z"/><path class="cls-2" d="M109.38,101.28c0,1.72.05,2.47.26,2.69s.49.27,1.4.27c.63,0,1.14,0,1.42-.36a1.51,1.51,0,0,0,.31-.7c0-.09,0-.15.11-.15s.07,0,.07.18a8.25,8.25,0,0,1-.18,1.17c-.08.27-.12.31-.74.31-1.69,0-2.46-.07-3.14-.07-.11,0-.8,0-1.15,0-.13,0-.19,0-.19-.1s0-.07.09-.07a1.34,1.34,0,0,0,.35,0c.24,0,.3-.3.34-.64s.06-1.42.06-2.54V99.19c0-1.83,0-2.16,0-2.54s-.12-.58-.51-.66a1.67,1.67,0,0,0-.39,0s-.1,0-.1-.07.06-.1.19-.1c.53,0,1.27,0,1.33,0s.91,0,1.26,0c.13,0,.19,0,.19.1s0,.07-.09.07a2.05,2.05,0,0,0-.39,0c-.34.05-.43.25-.46.66s0,.71,0,2.54Z"/><path class="cls-2" d="M116.41,101.62a2.49,2.49,0,0,0-.27-1.23c-.08-.19-1.66-2.77-2.07-3.38a3,3,0,0,0-.8-.87,1,1,0,0,0-.5-.19c-.06,0-.12,0-.12-.08s0-.09.16-.09l1.16,0c.08,0,.53,0,1,0,.13,0,.16,0,.16.09s-.08.06-.18.1a.25.25,0,0,0-.15.21,1,1,0,0,0,.15.46c.19.34,1.95,3.37,2.16,3.71.22-.49,1.71-3.06,2-3.45a1.16,1.16,0,0,0,.19-.6c0-.16,0-.29-.18-.33s-.18,0-.18-.12.07-.07.19-.07c.31,0,.68,0,.77,0l1.14,0c.08,0,.16,0,.16.07s-.06.1-.16.1a1.11,1.11,0,0,0-.54.17,2.37,2.37,0,0,0-.62.59,36.23,36.23,0,0,0-2.24,3.74,2.72,2.72,0,0,0-.18,1.17v1c0,.18,0,.68,0,1.17s.13.6.48.64a3.74,3.74,0,0,0,.53,0c.07,0,.09,0,.09.07s-.06.1-.19.1c-.64,0-1.38,0-1.44,0s-.8,0-1.15,0c-.13,0-.19,0-.19-.1s0-.07.1-.07a1.48,1.48,0,0,0,.35,0c.23,0,.34-.3.36-.64s0-1,0-1.17Z"/><path class="cls-2" d="M125.51,101.26c0,1.12,0,2,.06,2.54s.11.6.46.64a3.87,3.87,0,0,0,.53,0c.07,0,.09,0,.09.07s-.06.1-.18.1c-.65,0-1.39,0-1.45,0s-.79,0-1.15,0c-.13,0-.19,0-.19-.1s0-.07.1-.07a1.48,1.48,0,0,0,.35,0c.23,0,.29-.3.34-.64s.06-1.42.06-2.54v-5l-1.74,0c-.73,0-1,.1-1.19.38a1.79,1.79,0,0,0-.2.36c0,.1-.08.12-.12.12s-.06,0-.06-.1.23-1.13.26-1.23.07-.22.12-.22a1.88,1.88,0,0,0,.51.14c.34,0,.79.06.93.06h4.4a5.62,5.62,0,0,0,1.16-.12c.06,0,.06.07.06.14,0,.36,0,1.17,0,1.3s0,.15-.08.15-.08,0-.1-.2V97c0-.35-.31-.62-1.44-.65l-1.48,0Z"/><path class="cls-2" d="M131.12,99.19c0-1.83,0-2.16,0-2.54s-.12-.58-.51-.66a1.67,1.67,0,0,0-.39,0s-.1,0-.1-.07.06-.1.19-.1c.53,0,1.27,0,1.32,0h2.69a3.57,3.57,0,0,0,.51-.06c.06,0,.11-.06.16-.06s.05,0,.05.11-.06.22-.09.55c0,.12,0,.63-.06.77s0,.13-.08.13-.1-.06-.1-.15a1.22,1.22,0,0,0-.07-.42c-.08-.19-.2-.33-.83-.4-.2,0-1.48,0-1.61,0s-.07,0-.07.12V99.6c0,.08,0,.12.07.12s1.6,0,1.87,0a.82.82,0,0,0,.55-.16c.08-.09.13-.15.18-.15s.05,0,.05.09-.05.27-.09.66-.05.66-.05.75,0,.22-.08.22-.09,0-.09-.1a1.4,1.4,0,0,0,0-.39c0-.16-.15-.36-.61-.41s-1.48-.06-1.68-.06a.07.07,0,0,0-.08.08v1c0,.39,0,1.75,0,2,0,.81.21,1,1.36,1a3.36,3.36,0,0,0,1.13-.13c.3-.13.44-.37.52-.85,0-.13,0-.18.11-.18s.07.1.07.18a11.29,11.29,0,0,1-.15,1.14c-.08.3-.18.3-.64.3-1.77,0-2.55-.07-2.9-.07-.05,0-.79,0-1.15,0-.12,0-.18,0-.18-.1s0-.07.09-.07a1.34,1.34,0,0,0,.35,0c.24,0,.3-.3.35-.64s.05-1.42.05-2.54Z"/><path class="cls-2" d="M138.36,103.55a4.47,4.47,0,0,1-1.42-3.47,4.69,4.69,0,0,1,1.31-3.2,4.75,4.75,0,0,1,3.59-1.26,10.69,10.69,0,0,1,1.7.14,9.72,9.72,0,0,0,1.2.18c.12,0,.15.06.15.13s0,.23-.06.65,0,1,0,1.21,0,.25-.1.25-.09-.08-.09-.25a1.58,1.58,0,0,0-.5-1.19,3.9,3.9,0,0,0-2.34-.67,3.66,3.66,0,0,0-2.71.85A4,4,0,0,0,138,100a4.24,4.24,0,0,0,4.23,4.29,2.69,2.69,0,0,0,2.05-.59,2.08,2.08,0,0,0,.43-1c0-.13,0-.18.12-.18s.08.08.08.18a13.43,13.43,0,0,1-.25,1.5c-.08.22-.1.25-.31.34a6.79,6.79,0,0,1-2.12.27A5.38,5.38,0,0,1,138.36,103.55Z"/><path class="cls-2" d="M154.82,101.26c0,1.12,0,2,.05,2.54s.11.6.46.64a3.87,3.87,0,0,0,.53,0c.07,0,.09,0,.09.07s-.06.1-.18.1c-.65,0-1.39,0-1.45,0s-.8,0-1.15,0c-.13,0-.18,0-.18-.1s0-.07.09-.07a1.34,1.34,0,0,0,.35,0c.23,0,.29-.3.34-.64s.06-1.42.06-2.54V100a.08.08,0,0,0-.07-.07h-5a.06.06,0,0,0-.07.07v1.24c0,1.12,0,2,.06,2.54s.11.6.46.64a3.89,3.89,0,0,0,.52,0c.08,0,.1,0,.1.07s-.06.1-.19.1c-.64,0-1.38,0-1.44,0s-.8,0-1.15,0c-.13,0-.19,0-.19-.1s0-.07.1-.07a1.48,1.48,0,0,0,.35,0c.24,0,.29-.3.34-.64s.06-1.42.06-2.54V99.19c0-1.83,0-2.16,0-2.54s-.11-.58-.5-.66a1.7,1.7,0,0,0-.4,0c-.05,0-.09,0-.09-.07s0-.1.18-.1c.53,0,1.27,0,1.33,0s.8,0,1.15,0c.13,0,.19,0,.19.1s-.05.07-.09.07a1.3,1.3,0,0,0-.3,0c-.32.05-.41.25-.44.66s0,.71,0,2.54v.25s0,.06.07.06h5s.07,0,.07-.06v-.25c0-1.83,0-2.16,0-2.54s-.11-.58-.5-.66a1.7,1.7,0,0,0-.4,0c-.05,0-.09,0-.09-.07s.06-.1.19-.1c.52,0,1.27,0,1.32,0s.8,0,1.15,0c.13,0,.19,0,.19.1s0,.07-.09.07a1.23,1.23,0,0,0-.29,0c-.32.05-.42.25-.44.66s0,.71,0,2.54Z"/><path class="cls-2" d="M159.31,103.06c0,1,.14,1.27.46,1.36a2.46,2.46,0,0,0,.58.07c.06,0,.09,0,.09.07s-.06.1-.2.1c-.67,0-1.14,0-1.25,0s-.6,0-1.12,0c-.12,0-.19,0-.19-.1s0-.07.09-.07a1.68,1.68,0,0,0,.49-.07c.29-.08.34-.42.34-1.49l0-6.72c0-.46,0-.59.13-.59s.29.26.41.38,1.92,2.09,3.73,4c1.16,1.25,2.44,2.68,2.82,3.07l-.13-6c0-.76-.1-1-.46-1.11a2.89,2.89,0,0,0-.58-.06c-.08,0-.09,0-.09-.08s.09-.09.23-.09c.53,0,1.1,0,1.23,0s.51,0,1,0c.13,0,.21,0,.21.09s0,.08-.12.08a1,1,0,0,0-.29,0c-.38.08-.43.34-.43,1l0,6.88c0,.77,0,.83-.1.83s-.23-.13-.86-.75c-.13-.12-1.82-1.84-3.06-3.18s-2.69-3-3.06-3.37Z"/><path class="cls-2" d="M171.09,101.26c0,1.12,0,2,.06,2.54s.11.6.46.64a3.74,3.74,0,0,0,.53,0c.07,0,.09,0,.09.07s-.06.1-.19.1c-.64,0-1.38,0-1.44,0s-.8,0-1.15,0c-.13,0-.19,0-.19-.1s0-.07.09-.07a1.49,1.49,0,0,0,.36,0c.23,0,.29-.3.34-.64s0-1.42,0-2.54V99.19c0-1.83,0-2.16,0-2.54s-.14-.59-.4-.65a1.29,1.29,0,0,0-.36,0s-.1,0-.1-.07.06-.1.19-.1c.39,0,1.13,0,1.19,0s.8,0,1.15,0c.13,0,.19,0,.19.1s-.05.07-.1.07a1.3,1.3,0,0,0-.29,0c-.32.05-.41.25-.44.66s0,.71,0,2.54Z"/><path class="cls-2" d="M175,99.88c0-2.57,1.47-3.86,3.43-3.86s3.57,1.52,3.57,4.33c0,3.42-2.18,4-3.24,4C176.69,104.38,175,102.61,175,99.88Zm7.29,5.63a10.24,10.24,0,0,0,4.84,1.58,9,9,0,0,0,3.72-.81c.07,0,.09-.07.09-.12a.07.07,0,0,0-.07-.07l-.16,0a6.83,6.83,0,0,1-2.31.45,10.75,10.75,0,0,1-4.94-1.38L181.09,104a4.86,4.86,0,0,0,2.08-4,4.28,4.28,0,0,0-4.61-4.4,4.55,4.55,0,0,0-4.63,4.59,4.41,4.41,0,0,0,4.59,4.61,4.46,4.46,0,0,0,1.84-.4Z"/><path class="cls-2" d="M185.39,99.19c0-1.83,0-2.16,0-2.54s-.11-.58-.51-.66a1.67,1.67,0,0,0-.39,0c-.05,0-.1,0-.1-.07s.06-.1.19-.1c.53,0,1.25,0,1.35,0s.81,0,1.16,0c.14,0,.19,0,.19.1s-.05.07-.09.07a1.3,1.3,0,0,0-.3,0c-.32,0-.41.25-.43.66s0,.71,0,2.54v1.64c0,1.69.37,2.42.88,2.9a2.29,2.29,0,0,0,1.77.65,2.45,2.45,0,0,0,1.84-.85,4.57,4.57,0,0,0,.68-2.88V99.19c0-1.83,0-2.16,0-2.54s-.12-.58-.51-.66a1.7,1.7,0,0,0-.4,0c-.05,0-.09,0-.09-.07s.06-.1.19-.1c.53,0,1.17,0,1.24,0s.63,0,1,0c.13,0,.19,0,.19.1s0,.07-.1.07a.89.89,0,0,0-.29,0c-.32.05-.41.25-.44.66s0,.71,0,2.54v1.26a4.59,4.59,0,0,1-1.08,3.51,3.46,3.46,0,0,1-2.42.86,3.62,3.62,0,0,1-2.41-.83,3.87,3.87,0,0,1-1-3.09Z"/><path class="cls-2" d="M195.81,99.19c0-1.83,0-2.16,0-2.54s-.11-.58-.5-.66a1.75,1.75,0,0,0-.4,0s-.09,0-.09-.07.05-.1.18-.1c.53,0,1.27,0,1.33,0H199a3.39,3.39,0,0,0,.5-.06c.06,0,.11-.06.16-.06s0,0,0,.11-.06.22-.09.55c0,.12,0,.63-.06.77s0,.13-.08.13-.1-.06-.1-.15a1.22,1.22,0,0,0-.07-.42c-.08-.19-.2-.33-.83-.4-.2,0-1.48,0-1.61,0s-.07,0-.07.12V99.6c0,.08,0,.12.07.12s1.6,0,1.87,0a.82.82,0,0,0,.55-.16c.08-.09.13-.15.17-.15s.06,0,.06.09-.06.27-.09.66,0,.66,0,.75,0,.22-.08.22-.08,0-.08-.1a1.13,1.13,0,0,0-.05-.39c0-.16-.15-.36-.61-.41s-1.48-.06-1.68-.06a.08.08,0,0,0-.08.08v1c0,.39,0,1.75,0,2,0,.81.21,1,1.36,1a3.36,3.36,0,0,0,1.13-.13c.3-.13.45-.37.53-.85,0-.13.05-.18.1-.18s.07.1.07.18a11.29,11.29,0,0,1-.15,1.14c-.08.3-.18.3-.63.3-1.78,0-2.56-.07-2.9-.07-.06,0-.8,0-1.15,0-.13,0-.19,0-.19-.1s0-.07.1-.07a1.33,1.33,0,0,0,.34,0c.24,0,.3-.3.35-.64s.06-1.42.06-2.54Z"/><path class="cls-2" d="M45.18,113.27c0-1.83,0-2.16,0-2.53s-.12-.59-.5-.67a2.71,2.71,0,0,0-.4,0s-.1,0-.1-.07.06-.09.19-.09c.53,0,1.27,0,1.33,0,.23,0,2.61,0,2.88,0a3,3,0,0,0,.52,0,.64.64,0,0,1,.16-.07s.07,0,.07.1-.05.22-.09.55c0,.12,0,.64-.06.77s0,.13-.09.13-.08-.06-.08-.14a1.28,1.28,0,0,0-.11-.44.88.88,0,0,0-.8-.38l-1.81,0c-.07,0-.1,0-.1.14v3.24c0,.07,0,.1.08.1h2c.28,0,.44-.06.54-.21s.08-.12.13-.12.06,0,.06.09-.06.28-.1.66,0,.71,0,.79,0,.22-.08.22-.09,0-.09-.11a1.75,1.75,0,0,0-.07-.42.7.7,0,0,0-.61-.42c-.29,0-1.57,0-1.77,0s-.08,0-.08.11v1c0,1.12,0,2,.06,2.54s.1.6.46.65l.52,0c.07,0,.1,0,.1.07s-.06.09-.19.09c-.65,0-1.38,0-1.44,0l-1.15,0c-.13,0-.19,0-.19-.09s0-.07.09-.07a2.23,2.23,0,0,0,.36,0c.23,0,.29-.31.33-.65s.06-1.42.06-2.54Z"/><path class="cls-2" d="M55.53,108.27c.06.11,0,.14,0,.14a1.92,1.92,0,0,0-.36,0,7.38,7.38,0,0,0-1.78.5.9.9,0,0,1-.18.06.07.07,0,0,1-.05-.07s0-.07.08-.1c.42-.29,1.51-1,1.59-1s.27-.15.33-.15.06,0,.12.11S55.4,108,55.53,108.27Zm-3.4,5c0-1.83,0-2.16,0-2.53s-.12-.59-.51-.67a2.46,2.46,0,0,0-.4,0s-.09,0-.09-.07.06-.09.19-.09c.53,0,1.26,0,1.32,0s2.42,0,2.69,0a2.53,2.53,0,0,0,.51-.06s.1,0,.16,0,.05,0,.05.1-.06.22-.1.55c0,.12,0,.64-.06.77s0,.13-.08.13-.09-.06-.09-.15a1.22,1.22,0,0,0-.07-.42c-.08-.19-.2-.33-.84-.4-.2,0-1.47,0-1.6,0s-.07,0-.07.12v3.24c0,.08,0,.12.07.12s1.59,0,1.86,0,.45,0,.55-.17.13-.15.18-.15.06,0,.06.09-.06.28-.1.66,0,.67,0,.75,0,.22-.08.22a.09.09,0,0,1-.09-.1,1.43,1.43,0,0,0,0-.39c-.05-.16-.16-.36-.61-.41s-1.48-.06-1.68-.06-.08,0-.08.08v1c0,.4,0,1.75,0,2,0,.81.21,1,1.36,1a3.31,3.31,0,0,0,1.12-.13c.31-.13.45-.36.53-.84,0-.13,0-.18.11-.18s.07.1.07.18-.1.89-.15,1.14-.18.31-.64.31c-1.77,0-2.56-.07-2.9-.07l-1.15,0c-.13,0-.19,0-.19-.09s0-.07.1-.07a2.11,2.11,0,0,0,.35,0c.24,0,.29-.31.34-.65s.06-1.42.06-2.54Z"/><path class="cls-2" d="M60.28,113.08c0-.9,0-2.1,0-2.5,0-.13,0-.19.14-.23a2.92,2.92,0,0,1,.76-.09A4.83,4.83,0,0,1,65,111.59a4.22,4.22,0,0,1,1.12,3,4.08,4.08,0,0,1-.93,2.8,4,4,0,0,1-2.8,1.1c-1.38,0-1.84-.25-2-.47a2.41,2.41,0,0,1-.13-.9c0-.22,0-1.3,0-2.54Zm-1,2.26c0,1.12,0,2-.06,2.54s-.11.6-.34.65a2.27,2.27,0,0,1-.35,0c-.07,0-.1,0-.1.07s.06.09.19.09l1.15,0c.12,0,1.6.14,2.61.14a4.68,4.68,0,0,0,3.55-1.35,4.8,4.8,0,0,0,1.27-3.31,4.22,4.22,0,0,0-1.14-3c-1.4-1.44-3.54-1.33-4.7-1.33-.71,0-1.45,0-1.59,0s-.8,0-1.32,0c-.13,0-.19,0-.19.09s0,.07.09.07a2.46,2.46,0,0,1,.4,0c.39.08.48.26.51.67s0,.7,0,2.53Z"/><path class="cls-2" d="M73,108.27c.06.11,0,.14,0,.14a1.92,1.92,0,0,0-.36,0,7.38,7.38,0,0,0-1.78.5.9.9,0,0,1-.18.06.07.07,0,0,1-.05-.07s0-.07.08-.1c.42-.29,1.51-1,1.59-1s.27-.15.33-.15.06,0,.12.11S72.85,108,73,108.27Zm-3.4,5c0-1.83,0-2.16,0-2.53s-.12-.59-.51-.67a2.46,2.46,0,0,0-.4,0s-.09,0-.09-.07.06-.09.19-.09c.52,0,1.26,0,1.32,0s2.42,0,2.69,0a2.53,2.53,0,0,0,.51-.06s.1,0,.16,0,0,0,0,.1-.06.22-.1.55c0,.12,0,.64-.06.77s0,.13-.08.13-.09-.06-.09-.15a1.22,1.22,0,0,0-.07-.42c-.09-.19-.2-.33-.84-.4-.2,0-1.47,0-1.6,0s-.07,0-.07.12v3.24c0,.08,0,.12.07.12s1.59,0,1.86,0,.45,0,.55-.17.13-.15.18-.15.06,0,.06.09-.06.28-.1.66,0,.67,0,.75,0,.22-.08.22a.09.09,0,0,1-.09-.1,1.43,1.43,0,0,0,0-.39c0-.16-.16-.36-.61-.41s-1.48-.06-1.68-.06-.08,0-.08.08v1c0,.4,0,1.75,0,2,0,.81.21,1,1.36,1a3.31,3.31,0,0,0,1.12-.13c.31-.13.45-.36.53-.84,0-.13,0-.18.11-.18s.07.1.07.18a11.34,11.34,0,0,1-.16,1.14c-.08.31-.17.31-.63.31-1.77,0-2.56-.07-2.9-.07l-1.15,0c-.13,0-.18,0-.18-.09s0-.07.09-.07a2.11,2.11,0,0,0,.35,0c.24,0,.29-.31.34-.65s.06-1.42.06-2.54Z"/><path class="cls-2" d="M77.68,110.45a.13.13,0,0,1,.09-.14,4,4,0,0,1,.79-.07c1.25,0,2,.88,2,2.35a2.17,2.17,0,0,1-.72,1.81,1.5,1.5,0,0,1-.88.22,3.13,3.13,0,0,1-1.23-.19.14.14,0,0,1-.08-.14Zm-.94,4.89c0,1.12,0,2-.06,2.54s-.11.6-.34.65a2.27,2.27,0,0,1-.35,0c-.07,0-.1,0-.1.07s.06.09.19.09l1.1,0c.06,0,.8,0,1.45,0,.13,0,.18,0,.18-.09s0-.07-.09-.07l-.53,0c-.35,0-.42-.31-.45-.65s-.06-1.42-.06-2.54v-.29s0-.09.08-.09l1.44,0a.2.2,0,0,1,.15.07c.24.31.79,1.09,1.28,1.74a6.1,6.1,0,0,0,1.59,1.73,2.42,2.42,0,0,0,1.25.22h.84c.21,0,.28,0,.28-.09s0-.07-.11-.07a2.4,2.4,0,0,1-.45,0,2.49,2.49,0,0,1-1.44-.84c-.68-.73-1.47-1.78-2.44-3A3.6,3.6,0,0,0,81.57,112a2,2,0,0,0-.81-1.6,3.64,3.64,0,0,0-2.14-.51c-.37,0-1.26,0-1.39,0s-.8,0-1.32,0c-.13,0-.19,0-.19.09s0,.07.09.07a2.46,2.46,0,0,1,.4,0c.39.08.48.26.5.67s0,.7,0,2.53Z"/><path class="cls-2" d="M86.25,114.86s0,0,0-.09l1-3.17q.09-.25.18,0l1.11,3.17s0,.09,0,.09Zm-1.64,2.59c-.21.58-.44,1-1,1.1l-.34,0c-.06,0-.11,0-.11.07s.07.09.22.09c.56,0,1.2,0,1.33,0l.92,0c.1,0,.17,0,.17-.09s0-.07-.12-.07h-.11c-.2,0-.45-.11-.45-.35a2.63,2.63,0,0,1,.16-.78l.71-2.08a.12.12,0,0,1,.12-.09h2.52a.09.09,0,0,1,.1.07l1.1,2.88c.07.19,0,.3-.07.32s-.09,0-.09.08.13.08.36.09c.81,0,1.66,0,1.84,0s.23,0,.23-.09,0-.07-.12-.07a1.77,1.77,0,0,1-.46-.07c-.25-.08-.59-.26-1-1.31-.72-1.78-2.56-6.63-2.74-7.07s-.19-.43-.26-.43-.11.08-.25.46Z"/><path class="cls-2" d="M94.79,115.36c0,1.72,0,2.48.25,2.68s.5.28,1.41.28c.62,0,1.14,0,1.42-.36a1.57,1.57,0,0,0,.31-.7c0-.1,0-.15.1-.15s.07,0,.07.17a8,8,0,0,1-.17,1.18c-.08.27-.12.32-.74.32-1.69,0-2.47-.07-3.15-.07l-1.15,0c-.13,0-.18,0-.18-.09s0-.07.09-.07a2,2,0,0,0,.35,0c.24,0,.3-.31.34-.65s.06-1.42.06-2.54v-2.07c0-1.83,0-2.16,0-2.53s-.12-.59-.51-.67a2.46,2.46,0,0,0-.4,0s-.09,0-.09-.07.06-.09.19-.09c.53,0,1.27,0,1.32,0s.92,0,1.27,0c.13,0,.19,0,.19.09s0,.07-.1.07l-.38,0c-.34.06-.44.25-.46.67s0,.7,0,2.53Z"/><path class="cls-2" d="M100.75,113.27c0-1.83,0-2.16,0-2.53s-.11-.59-.5-.67a2.46,2.46,0,0,0-.4,0s-.09,0-.09-.07.06-.09.18-.09c.53,0,1.27,0,1.33,0s2.42,0,2.69,0a2.31,2.31,0,0,0,.5-.06c.06,0,.11,0,.17,0s0,0,0,.1,0,.22-.09.55c0,.12,0,.64-.06.77s0,.13-.08.13-.09-.06-.09-.15a1.27,1.27,0,0,0-.08-.42c-.08-.19-.2-.33-.83-.4-.2,0-1.48,0-1.61,0s-.07,0-.07.12v3.24c0,.08,0,.12.07.12s1.6,0,1.87,0,.45,0,.55-.17.13-.15.18-.15.06,0,.06.09-.06.28-.1.66,0,.67,0,.75,0,.22-.09.22-.08-.05-.08-.1a1.16,1.16,0,0,0-.05-.39c0-.16-.15-.36-.61-.41-.31,0-1.48-.06-1.68-.06a.07.07,0,0,0-.08.08v1c0,.4,0,1.75,0,2,0,.81.22,1,1.36,1a3.33,3.33,0,0,0,1.13-.13c.31-.13.45-.36.53-.84,0-.13,0-.18.11-.18s.06.1.06.18a10.93,10.93,0,0,1-.15,1.14c-.08.31-.17.31-.63.31-1.77,0-2.56-.07-2.9-.07l-1.15,0c-.13,0-.19,0-.19-.09s0-.07.1-.07a2.27,2.27,0,0,0,.35,0c.23,0,.29-.31.34-.65s.06-1.42.06-2.54Z"/><path class="cls-2" d="M112.7,113.08c0-.9,0-2.1,0-2.5,0-.13,0-.19.14-.23a2.92,2.92,0,0,1,.76-.09,4.84,4.84,0,0,1,3.84,1.33,4.22,4.22,0,0,1,1.12,3,4.08,4.08,0,0,1-.93,2.8,4,4,0,0,1-2.8,1.1c-1.38,0-1.84-.25-2-.47a2.41,2.41,0,0,1-.13-.9c0-.22,0-1.3,0-2.54Zm-1,2.26c0,1.12,0,2-.06,2.54s-.11.6-.34.65a2.27,2.27,0,0,1-.35,0c-.07,0-.09,0-.09.07s.05.09.18.09l1.15,0c.12,0,1.6.14,2.61.14a4.68,4.68,0,0,0,3.55-1.35,4.8,4.8,0,0,0,1.27-3.31,4.22,4.22,0,0,0-1.14-3c-1.39-1.44-3.54-1.33-4.7-1.33-.71,0-1.45,0-1.59,0s-.8,0-1.32,0c-.13,0-.19,0-.19.09s0,.07.09.07a2.46,2.46,0,0,1,.4,0c.39.08.48.26.51.67s0,.7,0,2.53Z"/><path class="cls-2" d="M122.48,113.27c0-1.83,0-2.16,0-2.53s-.12-.59-.51-.67a2.46,2.46,0,0,0-.4,0s-.09,0-.09-.07.06-.09.19-.09c.52,0,1.26,0,1.32,0s2.42,0,2.69,0a2.53,2.53,0,0,0,.51-.06s.1,0,.16,0,0,0,0,.1-.06.22-.1.55c0,.12,0,.64-.06.77s0,.13-.07.13-.1-.06-.1-.15a1.22,1.22,0,0,0-.07-.42c-.09-.19-.2-.33-.83-.4-.2,0-1.49,0-1.61,0s-.07,0-.07.12v3.24c0,.08,0,.12.07.12s1.59,0,1.86,0,.45,0,.56-.17.12-.15.17-.15.06,0,.06.09-.06.28-.09.66,0,.67,0,.75,0,.22-.08.22a.09.09,0,0,1-.09-.1,1.43,1.43,0,0,0,0-.39c0-.16-.16-.36-.61-.41s-1.48-.06-1.68-.06-.08,0-.08.08v1c0,.4,0,1.75,0,2,0,.81.2,1,1.36,1a3.39,3.39,0,0,0,1.13-.13c.3-.13.44-.36.52-.84,0-.13,0-.18.11-.18s.07.1.07.18a11.34,11.34,0,0,1-.16,1.14c-.08.31-.17.31-.63.31-1.77,0-2.55-.07-2.9-.07l-1.15,0c-.13,0-.18,0-.18-.09s0-.07.09-.07a2,2,0,0,0,.35,0c.24,0,.29-.31.34-.65s.06-1.42.06-2.54Z"/><path class="cls-2" d="M134.44,115.36c0,1.72,0,2.48.26,2.68s.49.28,1.41.28c.62,0,1.13,0,1.41-.36a1.47,1.47,0,0,0,.31-.7c0-.1,0-.15.1-.15s.08,0,.08.17a8.34,8.34,0,0,1-.18,1.18c-.08.27-.12.32-.74.32-1.69,0-2.46-.07-3.14-.07l-1.15,0c-.13,0-.19,0-.19-.09s0-.07.09-.07a2,2,0,0,0,.35,0c.24,0,.3-.31.34-.65s.06-1.42.06-2.54v-2.07c0-1.83,0-2.16,0-2.53s-.12-.59-.5-.67a2.71,2.71,0,0,0-.4,0c-.05,0-.1,0-.1-.07s.06-.09.19-.09c.53,0,1.27,0,1.33,0s.91,0,1.26,0c.13,0,.19,0,.19.09s-.05.07-.1.07l-.38,0c-.34.06-.44.25-.46.67s0,.7,0,2.53Z"/><path class="cls-2" d="M141.3,114.86s-.06,0,0-.09l1-3.17q.09-.25.18,0l1.11,3.17s0,.09,0,.09Zm-1.64,2.59c-.21.58-.45,1-1,1.1l-.35,0c-.06,0-.1,0-.1.07s.07.09.22.09c.55,0,1.2,0,1.33,0l.92,0c.1,0,.17,0,.17-.09s0-.07-.12-.07h-.11c-.21,0-.45-.11-.45-.35a2.35,2.35,0,0,1,.16-.78l.7-2.08c0-.06.06-.09.12-.09h2.53a.09.09,0,0,1,.1.07l1.09,2.88c.07.19,0,.3-.07.32s-.08,0-.08.08.13.08.35.09c.81,0,1.67,0,1.85,0s.23,0,.23-.09,0-.07-.12-.07a1.77,1.77,0,0,1-.46-.07c-.25-.08-.6-.26-1-1.31-.72-1.78-2.56-6.63-2.74-7.07s-.18-.43-.26-.43-.12.08-.26.46Z"/><path class="cls-2" d="M148.17,113.27c0-1.83,0-2.16,0-2.53s-.11-.59-.5-.67a2.46,2.46,0,0,0-.4,0c-.05,0-.09,0-.09-.07s.06-.09.19-.09c.52,0,1.24,0,1.34,0s.82,0,1.16,0c.13,0,.19,0,.19.09s0,.07-.09.07a2.4,2.4,0,0,0-.29,0c-.32,0-.42.25-.44.67s0,.7,0,2.53v1.65c0,1.69.38,2.41.88,2.89a2.29,2.29,0,0,0,1.77.65,2.49,2.49,0,0,0,1.84-.85,4.54,4.54,0,0,0,.68-2.87v-1.47c0-1.83,0-2.16,0-2.53s-.12-.59-.51-.67a2.45,2.45,0,0,0-.39,0c-.05,0-.09,0-.09-.07s.05-.09.18-.09c.53,0,1.17,0,1.24,0s.64,0,1,0c.13,0,.19,0,.19.09s0,.07-.1.07a.89.89,0,0,0-.29,0c-.31.06-.41.25-.43.67s0,.7,0,2.53v1.26A4.54,4.54,0,0,1,154,118a3.38,3.38,0,0,1-2.41.87,3.58,3.58,0,0,1-2.42-.83,3.89,3.89,0,0,1-1-3.09Z"/><path class="cls-2" d="M157.84,118.59c-.17-.08-.18-.13-.18-.45,0-.59.05-1.06.06-1.24s0-.19.09-.19.09,0,.09.13a2.38,2.38,0,0,0,0,.43,1.6,1.6,0,0,0,1.74,1.2,1.56,1.56,0,0,0,1.67-1.56c0-.81-.33-1.28-1.34-2.11l-.53-.44c-1.24-1-1.53-1.75-1.53-2.54a2.15,2.15,0,0,1,2.43-2.12,4.51,4.51,0,0,1,1.09.12,1.83,1.83,0,0,0,.41.06c.1,0,.12,0,.12.08s0,.45,0,1.24c0,.19,0,.28-.09.28s-.08-.07-.09-.16a1.73,1.73,0,0,0-.16-.58c-.07-.13-.38-.63-1.46-.63a1.34,1.34,0,0,0-1.45,1.37c0,.66.33,1.06,1.44,2l.32.26c1.39,1.09,1.72,1.82,1.72,2.75a2.43,2.43,0,0,1-1,2,3,3,0,0,1-1.77.49A3.61,3.61,0,0,1,157.84,118.59Z"/><path class="cls-2" d="M166,114.86s-.06,0,0-.09l1-3.17c.05-.17.11-.17.17,0l1.11,3.17s0,.09,0,.09Zm-1.65,2.59c-.21.58-.44,1-1,1.1l-.33,0c-.06,0-.11,0-.11.07s.07.09.22.09c.56,0,1.2,0,1.33,0l.91,0c.11,0,.18,0,.18-.09s0-.07-.12-.07h-.12c-.19,0-.44-.11-.44-.35a2.4,2.4,0,0,1,.17-.78l.7-2.08a.12.12,0,0,1,.12-.09h2.52a.09.09,0,0,1,.1.07l1.1,2.88c.07.19,0,.3-.07.32s-.09,0-.09.08.13.08.36.09c.81,0,1.66,0,1.84,0s.24,0,.24-.09,0-.07-.12-.07a1.78,1.78,0,0,1-.47-.07c-.25-.08-.59-.26-1-1.31-.72-1.78-2.56-6.63-2.74-7.07s-.19-.43-.26-.43-.11.08-.25.46Z"/><path class="cls-2" d="M173.81,117.14c0,1,.14,1.27.46,1.37a3.15,3.15,0,0,0,.58.07c.06,0,.1,0,.1.07s-.07.09-.21.09c-.67,0-1.14,0-1.25,0s-.6,0-1.12,0c-.12,0-.19,0-.19-.09s0-.07.09-.07a2,2,0,0,0,.48-.07c.29-.09.35-.43.35-1.5v-6.72c0-.46,0-.59.13-.59s.3.26.42.38,1.92,2.09,3.73,4c1.16,1.25,2.44,2.68,2.81,3.06l-.13-6c0-.76-.09-1-.45-1.11A4,4,0,0,0,179,110c-.08,0-.09,0-.09-.08s.09-.08.23-.08c.53,0,1.09,0,1.23,0s.51,0,1,0c.13,0,.21,0,.21.08s0,.08-.13.08a.94.94,0,0,0-.28,0c-.39.08-.43.34-.43,1l0,6.88c0,.78,0,.83-.1.83s-.23-.13-.86-.75c-.13-.12-1.82-1.84-3.06-3.18s-2.69-2.94-3.06-3.37Z"/><path class="cls-2" d="M184.92,117.14c0,1,.14,1.27.46,1.37a3.15,3.15,0,0,0,.59.07c.05,0,.09,0,.09.07s-.07.09-.21.09c-.67,0-1.14,0-1.25,0s-.59,0-1.12,0c-.12,0-.19,0-.19-.09s0-.07.1-.07a2,2,0,0,0,.47-.07c.3-.09.36-.43.36-1.5v-6.72c0-.46,0-.59.13-.59s.29.26.41.38,1.92,2.09,3.73,4c1.16,1.25,2.44,2.68,2.82,3.06l-.13-6c0-.76-.09-1-.46-1.11a3.92,3.92,0,0,0-.57-.06c-.09,0-.1,0-.1-.08s.1-.08.24-.08c.52,0,1.09,0,1.22,0s.51,0,1,0c.13,0,.21,0,.21.08s0,.08-.13.08a.9.9,0,0,0-.28,0c-.38.08-.43.34-.43,1l0,6.88c0,.78,0,.83-.11.83s-.23-.13-.85-.75c-.14-.12-1.82-1.84-3.07-3.18s-2.69-2.94-3.06-3.37Z"/><path class="cls-2" d="M195.72,113.27c0-1.83,0-2.16,0-2.53s-.11-.59-.5-.67a2.46,2.46,0,0,0-.4,0s-.09,0-.09-.07.06-.09.18-.09c.53,0,1.27,0,1.33,0s2.42,0,2.69,0a2.41,2.41,0,0,0,.5-.06c.06,0,.11,0,.17,0s0,0,0,.1-.05.22-.09.55c0,.12,0,.64-.06.77s0,.13-.08.13-.1-.06-.1-.15a1.22,1.22,0,0,0-.07-.42c-.08-.19-.2-.33-.83-.4-.2,0-1.48,0-1.6,0s-.08,0-.08.12v3.24c0,.08,0,.12.08.12s1.59,0,1.86,0,.45,0,.55-.17.13-.15.17-.15.07,0,.07.09-.07.28-.1.66-.05.67-.05.75,0,.22-.08.22-.08-.05-.08-.1a1.16,1.16,0,0,0-.05-.39c0-.16-.15-.36-.61-.41s-1.47-.06-1.67-.06-.09,0-.09.08v1c0,.4,0,1.75,0,2,0,.81.22,1,1.37,1a3.31,3.31,0,0,0,1.12-.13c.31-.13.45-.36.53-.84,0-.13.05-.18.11-.18s.07.1.07.18a11.34,11.34,0,0,1-.16,1.14c-.08.31-.17.31-.63.31-1.78,0-2.56-.07-2.9-.07l-1.15,0c-.13,0-.19,0-.19-.09s0-.07.1-.07a2.27,2.27,0,0,0,.35,0c.23,0,.29-.31.34-.65s.06-1.42.06-2.54Z"/></svg>