<?xml version="1.0" encoding="UTF-8"?>
<!DOCTYPE svg PUBLIC "-//W3C//DTD SVG 1.1//EN" "http://www.w3.org/Graphics/SVG/1.1/DTD/svg11.dtd">
<svg version="1.1" xmlns="http://www.w3.org/2000/svg" xmlns:xlink="http://www.w3.org/1999/xlink" x="0" y="0" width="565" height="225" viewBox="0, 0, 565, 225">
  <g id="Calque_1">
    <g>
      <path d="M206.947,162.135 L238.947,162.135 L238.947,98.366 L206.947,98.366 z" fill="#FEF035"/>
      <path d="M270.947,162.135 L302.947,162.135 L302.947,9.443 L270.947,9.443 z" fill="#FEF035"/>
      <path d="M334.947,162.135 L366.947,162.135 L366.947,34.049 L334.947,34.049 z" fill="#FEF035"/>
      <path d="M398.947,162.135 L430.947,162.135 L430.947,2.135 L398.947,2.135 z" fill="#FEF035"/>
      <path d="M462.947,162.135 L494.947,162.135 L494.947,12.671 L462.947,12.671 z" fill="#FEF035"/>
      <path d="M526.947,162.135 L558.947,162.135 L558.947,37.095 L526.947,37.095 z" fill="#FEF035"/>
    </g>
  </g>
  <g id="Calque_2">
    <text transform="matrix(1, 0, 0, 1, 542.947, 194.135)">
      <tspan x="-17.172" y="1" font-family="HelveticaNeue" font-size="18" fill="#444745">True</tspan>
    </text>
    <text transform="matrix(1, 0, 0, 1, 478.947, 200.135)">
      <tspan x="-26.838" y="-5" font-family="HelveticaNeue" font-size="18" fill="#444745">Mostly </tspan>
      <tspan x="-15.669" y="17" font-family="HelveticaNeue" font-size="18" fill="#444745">true</tspan>
    </text>
    <text transform="matrix(1, 0, 0, 1, 414.947, 201.135)">
      <tspan x="-15.993" y="-6" font-family="HelveticaNeue" font-size="18" fill="#444745">Half </tspan>
      <tspan x="-15.669" y="16" font-family="HelveticaNeue" font-size="18" fill="#444745">true</tspan>
    </text>
    <text transform="matrix(1, 0, 0, 1, 350.947, 201.135)">
      <tspan x="-25.164" y="-6" font-family="HelveticaNeue" font-size="18" fill="#444745">Barely </tspan>
      <tspan x="-15.669" y="16" font-family="HelveticaNeue" font-size="18" fill="#444745">true</tspan>
    </text>
    <text transform="matrix(1, 0, 0, 1, 286.947, 194.135)">
      <tspan x="-21.33" y="1" font-family="HelveticaNeue" font-size="18" fill="#444745">False</tspan>
    </text>
    <text transform="matrix(1, 0, 0, 1, 222.947, 201.135)">
      <tspan x="-23.004" y="-6" font-family="HelveticaNeue" font-size="18" fill="#444745">Pants</tspan>
      <tspan x="-12.33" y="16" font-family="HelveticaNeue" font-size="18" fill="#444745">fire</tspan>
    </text>
    <path d="M206.947,162.135 L238.947,162.135 L238.947,166.135 L206.947,166.135 L206.947,162.135 z" fill="#444745"/>
    <path d="M270.947,162.135 L302.947,162.135 L302.947,166.135 L270.947,166.135 L270.947,162.135 z" fill="#444745"/>
    <path d="M334.947,162.135 L366.947,162.135 L366.947,166.135 L334.947,166.135 L334.947,162.135 z" fill="#444745"/>
    <path d="M398.947,162.135 L430.947,162.135 L430.947,166.135 L398.947,166.135 L398.947,162.135 z" fill="#444745"/>
    <path d="M462.947,162.135 L494.947,162.135 L494.947,166.135 L462.947,166.135 L462.947,162.135 z" fill="#444745"/>
    <path d="M526.947,162.135 L558.947,162.135 L558.947,166.135 L526.947,166.135 L526.947,162.135 z" fill="#444745"/>
    <text transform="matrix(1, 0, 0, 1, 222.947, 154.135)">
      <tspan x="-13.344" y="3" font-family="HelveticaNeue" font-size="12" kerning="0" fill="#444745">1047</tspan>
    </text>
    <text transform="matrix(1, 0, 0, 1, 286.947, 154.135)">
      <tspan x="-13.344" y="3" font-family="HelveticaNeue" font-size="12" kerning="0" fill="#444745">2507</tspan>
    </text>
    <text transform="matrix(1, 0, 0, 1, 350.947, 154.135)">
      <tspan x="-13.344" y="3" font-family="HelveticaNeue" font-size="12" kerning="0" fill="#444745">2103</tspan>
    </text>
    <text transform="matrix(1, 0, 0, 1, 414.947, 154.135)">
      <tspan x="-13.344" y="3" font-family="HelveticaNeue" font-size="12" kerning="0" fill="#444745">2627</tspan>
    </text>
    <text transform="matrix(1, 0, 0, 1, 478.947, 154.135)">
      <tspan x="-13.344" y="3" font-family="HelveticaNeue" font-size="12" kerning="0" fill="#444745">2454</tspan>
    </text>
    <text transform="matrix(1, 0, 0, 1, 542.947, 154.135)">
      <tspan x="-13.344" y="3" font-family="HelveticaNeue" font-size="12" kerning="0" fill="#444745">2053</tspan>
    </text>
    <path d="M2.947,2.135 L166.947,2.135 L166.947,166.135 L2.947,166.135 L2.947,2.135 z" fill="#FEF036"/>
    <text transform="matrix(1, 0, 0, 1, 84.947, 72.135)">
      <tspan x="-49.5" y="8" font-family="Times-BoldItalic" font-size="36" kerning="0" fill="#444745">12,791</tspan>
    </text>
    <text transform="matrix(1, 0, 0, 1, 85.947, 131.135)">
      <tspan x="-67.167" y="-16" font-family="HelveticaNeue" font-size="18" fill="#444745">articles analysed </tspan>
      <tspan x="-46.845" y="6" font-family="HelveticaNeue" font-size="18" fill="#444745">and labeled</tspan>
    </text>
  </g>
</svg>
